<svg width="400" height="400" viewBox="0 0 400 400" fill="none" xmlns="http://www.w3.org/2000/svg">
<g clip-path="url(#clip0_585_14)">
<path d="M199.177 399.446C198.497 398.83 198.041 397.982 197.585 397.158C196.977 396.046 196.361 394.974 195.657 393.95C194.849 392.767 193.921 391.647 192.969 390.559C189.69 386.839 186.058 383.463 182.202 380.375C177.386 376.512 172.211 373.088 167.315 369.36C163.291 366.304 159.459 363.041 155.827 359.793C152.404 356.729 149.156 353.673 146.86 349.874C144.892 346.618 143.628 342.802 142.964 337.698C138.876 340.834 135.293 342.634 131.597 343.546C127.285 344.618 122.829 344.474 118.245 344.226C113.374 343.954 108.358 343.546 103.35 342.866C97.2546 342.042 91.175 340.802 85.0393 340.122C80.1276 339.586 75.1679 339.402 70.2241 339.714C68.7762 339.81 67.3363 339.946 65.9204 340.21C64.7045 340.434 63.5045 340.762 62.2886 341.114C61.3846 341.378 60.4647 341.658 59.5447 341.61C59.2807 341.594 59.0168 341.554 58.7608 341.514C58.6168 341.482 58.5128 341.386 58.4888 341.242C58.4408 340.978 58.4008 340.714 58.3848 340.45C58.3368 339.53 58.6168 338.61 58.8808 337.706C59.2327 336.49 59.5607 335.291 59.7847 334.075C60.0487 332.659 60.1847 331.219 60.2807 329.771C60.5927 324.827 60.4087 319.876 59.8727 314.956C59.1928 308.82 57.9528 302.741 57.1289 296.645C56.4489 291.646 56.0409 286.622 55.7769 281.758C55.521 277.167 55.385 272.711 56.4489 268.407C57.3609 264.704 59.1608 261.12 62.2966 257.04C57.1929 256.368 53.3851 255.104 50.1212 253.136C46.3215 250.84 43.2656 247.593 40.2018 244.169C36.954 240.537 33.6902 236.705 30.6343 232.69C26.9065 227.786 23.4827 222.618 19.6269 217.795C16.5311 213.939 13.1553 210.307 9.43548 207.036C8.34754 206.076 7.2356 205.148 6.05167 204.34C5.01972 203.636 3.94778 203.02 2.83584 202.412C2.01189 201.956 1.16394 201.508 0.54797 200.82C0.37198 200.628 0.211988 200.412 0.0599967 200.188C-0.0199989 200.076 -0.0199989 199.924 0.0599967 199.804C0.211988 199.588 0.37198 199.372 0.54797 199.18C1.16394 198.492 2.01189 198.044 2.83584 197.588C3.94778 196.98 5.01972 196.364 6.05167 195.66C7.2356 194.852 8.34754 193.924 9.43548 192.965C13.1553 189.693 16.5311 186.061 19.6269 182.205C23.4827 177.382 26.9065 172.214 30.6343 167.31C33.6902 163.295 36.954 159.463 40.2018 155.831C43.2656 152.407 46.3215 149.16 50.1212 146.864C53.3851 144.896 57.1929 143.632 62.2966 142.96C59.1608 138.88 57.3609 135.289 56.4489 131.593C55.385 127.289 55.521 122.825 55.7769 118.242C56.0409 113.37 56.4489 108.354 57.1289 103.355C57.9528 97.2592 59.1928 91.1797 59.8727 85.0361C60.4087 80.1244 60.5927 75.1728 60.2807 70.2291C60.1847 68.7812 60.0487 67.3333 59.7847 65.9254C59.5607 64.7015 59.2327 63.5096 58.8808 62.2937C58.6168 61.3897 58.3368 60.4698 58.3848 59.5498C58.4008 59.2858 58.4408 59.0219 58.4888 58.7579C58.5128 58.6139 58.6168 58.5099 58.7608 58.4859C59.0168 58.4379 59.2807 58.3979 59.5447 58.3899C60.4647 58.3419 61.3846 58.6219 62.2886 58.8859C63.5045 59.2379 64.7045 59.5579 65.9204 59.7898C67.3363 60.0538 68.7762 60.1898 70.2241 60.2778C75.1679 60.5978 80.1276 60.4138 85.0393 59.8698C91.175 59.1979 97.2546 57.958 103.35 57.126C108.358 56.4461 113.374 56.0461 118.245 55.7741C122.829 55.5181 127.285 55.3822 131.597 56.4461C135.293 57.366 138.876 59.1579 142.964 62.3016C143.628 57.198 144.892 53.3823 146.86 50.1265C149.156 46.3268 152.404 43.271 155.827 40.2072C159.459 36.9594 163.291 33.6957 167.315 30.6399C172.211 26.9121 177.386 23.4884 182.202 19.6247C186.058 16.5369 189.69 13.1611 192.969 9.44134C193.921 8.35342 194.849 7.2335 195.657 6.04958C196.361 5.02566 196.977 3.95372 197.585 2.8418C198.041 2.01786 198.497 1.1699 199.177 0.55395C199.377 0.377962 199.585 0.217985 199.809 0.0659954C199.929 -0.0219985 200.073 -0.0219985 200.193 0.0659954C200.409 0.217985 200.625 0.377962 200.817 0.55395C201.505 1.1699 201.953 2.01786 202.409 2.8418C203.017 3.95372 203.633 5.02566 204.337 6.04958C205.145 7.2335 206.073 8.35342 207.033 9.44134C210.304 13.1611 213.936 16.5369 217.792 19.6247C222.616 23.4884 227.791 26.9121 232.687 30.6399C236.703 33.6957 240.535 36.9594 244.175 40.2072C247.59 43.271 250.838 46.3268 253.134 50.1265C255.102 53.3823 256.366 57.198 257.038 62.3016C261.118 59.1579 264.709 57.366 268.405 56.4461C272.717 55.3822 277.173 55.5181 281.756 55.7741C286.628 56.0461 291.644 56.4461 296.644 57.126C302.747 57.958 308.819 59.1979 314.963 59.8698C319.874 60.4138 324.826 60.5978 329.77 60.2778C331.218 60.1898 332.666 60.0538 334.074 59.7898C335.298 59.5579 336.489 59.2379 337.705 58.8859C338.617 58.6219 339.529 58.3419 340.449 58.3899C340.713 58.3899 340.977 58.4379 341.241 58.4859C341.385 58.5099 341.489 58.6139 341.513 58.7579C341.561 59.0219 341.601 59.2858 341.609 59.5498C341.657 60.4698 341.377 61.3897 341.121 62.2937C340.761 63.5096 340.441 64.7015 340.209 65.9254C339.945 67.3333 339.809 68.7812 339.721 70.2291C339.401 75.1728 339.585 80.1244 340.129 85.0361C340.801 91.1797 342.041 97.2592 342.873 103.355C343.553 108.354 343.953 113.37 344.225 118.242C344.481 122.825 344.617 127.289 343.553 131.593C342.641 135.289 340.841 138.88 337.705 142.96C342.809 143.632 346.617 144.896 349.873 146.864C353.681 149.16 356.728 152.407 359.792 155.831C363.048 159.463 366.304 163.295 369.368 167.31C373.087 172.214 376.511 177.382 380.375 182.205C383.463 186.061 386.839 189.693 390.558 192.965C391.646 193.924 392.766 194.852 393.95 195.66C394.974 196.364 396.046 196.98 397.158 197.588C397.99 198.044 398.83 198.492 399.454 199.18C399.63 199.372 399.782 199.588 399.934 199.804C400.022 199.924 400.022 200.076 399.934 200.188C399.782 200.412 399.63 200.628 399.454 200.82C398.83 201.508 397.99 201.956 397.158 202.412C396.046 203.02 394.974 203.636 393.95 204.34C392.766 205.148 391.646 206.076 390.558 207.036C386.839 210.307 383.463 213.939 380.375 217.795C376.511 222.618 373.087 227.786 369.368 232.69C366.304 236.705 363.048 240.537 359.792 244.169C356.728 247.593 353.681 250.84 349.873 253.136C346.617 255.104 342.809 256.368 337.705 257.04C340.841 261.12 342.641 264.704 343.553 268.407C344.617 272.711 344.481 277.167 344.225 281.758C343.953 286.622 343.553 291.646 342.873 296.645C342.041 302.741 340.801 308.82 340.129 314.956C339.585 319.876 339.401 324.827 339.721 329.771C339.809 331.219 339.945 332.659 340.209 334.075C340.441 335.291 340.761 336.49 341.121 337.706C341.377 338.61 341.657 339.53 341.609 340.45C341.601 340.714 341.561 340.978 341.513 341.242C341.489 341.386 341.385 341.482 341.241 341.514C340.977 341.554 340.713 341.594 340.449 341.61C339.529 341.658 338.617 341.378 337.705 341.114C336.489 340.762 335.298 340.434 334.074 340.21C332.666 339.946 331.218 339.81 329.77 339.714C324.826 339.402 319.874 339.586 314.963 340.122C308.819 340.802 302.747 342.042 296.644 342.866C291.644 343.546 286.628 343.954 281.756 344.226C277.173 344.474 272.717 344.618 268.405 343.546C264.709 342.634 261.118 340.834 257.038 337.698C256.366 342.802 255.102 346.618 253.134 349.874C250.838 353.673 247.59 356.729 244.175 359.793C240.535 363.041 236.703 366.304 232.687 369.36C227.791 373.088 222.616 376.512 217.792 380.375C213.936 383.463 210.304 386.839 207.033 390.559C206.073 391.647 205.145 392.767 204.337 393.95C203.633 394.974 203.017 396.046 202.409 397.158C201.953 397.982 201.505 398.83 200.817 399.446C200.625 399.622 200.409 399.782 200.193 399.934C200.073 400.022 199.929 400.022 199.809 399.934C199.585 399.782 199.377 399.622 199.177 399.446Z" fill="url(#paint0_radial_585_14)"/>
<path d="M200 352C282.843 352 350 284.843 350 202C350 119.157 282.843 52 200 52C117.157 52 50 119.157 50 202C50 284.843 117.157 352 200 352Z" fill="url(#paint1_radial_585_14)"/>
<path d="M255.996 341.225C255.35 340.988 254.794 340.527 254.245 340.083C253.509 339.482 252.778 338.91 252.001 338.397C251.105 337.801 250.145 337.285 249.177 336.797C245.849 335.135 242.373 333.812 238.823 332.753C234.387 331.424 229.825 330.503 225.372 329.292C221.714 328.301 218.131 327.113 214.692 325.879C211.449 324.714 208.33 323.505 205.664 321.511C203.379 319.803 201.425 317.507 199.525 314.147C197.568 317.478 195.584 319.739 193.272 321.414C190.577 323.374 187.44 324.53 184.184 325.649C180.721 326.833 177.12 327.962 173.448 328.901C168.979 330.046 164.404 330.897 159.947 332.153C156.383 333.165 152.883 334.435 149.535 336.045C148.556 336.519 147.593 337.02 146.684 337.602C145.902 338.1 145.16 338.666 144.414 339.254C143.86 339.692 143.3 340.146 142.647 340.372C142.459 340.435 142.264 340.481 142.075 340.526C141.966 340.544 141.866 340.507 141.809 340.413C141.701 340.243 141.599 340.071 141.514 339.892C141.221 339.266 141.156 338.548 141.085 337.845C140.987 336.901 140.877 335.975 140.69 335.066C140.475 334.008 140.163 332.969 139.822 331.935C138.646 328.411 137.123 325.022 135.364 321.753C133.162 317.68 130.588 313.804 128.297 309.799C126.416 306.516 124.717 303.139 123.163 299.833C121.691 296.714 120.341 293.655 119.868 290.364C119.458 287.533 119.699 284.535 120.729 280.815C116.992 281.787 113.989 281.981 111.166 281.533C107.878 281.008 104.839 279.612 101.745 278.095C98.4643 276.486 95.116 274.743 91.8605 272.813C87.8877 270.455 84.0518 267.828 80.0126 265.562C76.7744 263.754 73.4046 262.181 69.8973 260.955C68.8706 260.594 67.8363 260.263 66.7857 260.035C65.8701 259.836 64.9515 259.71 64.0073 259.601C63.3061 259.516 62.5905 259.444 61.9685 259.139C61.7921 259.055 61.6201 258.95 61.4513 258.838C61.3641 258.782 61.3213 258.677 61.3431 258.571C61.3879 258.378 61.4382 258.183 61.5064 257.999C61.7407 257.348 62.2039 256.797 62.6481 256.248C63.2496 255.512 63.8211 254.782 64.34 254.002C64.9352 253.107 65.4466 252.149 65.9323 251.175C67.5958 247.853 68.9188 244.377 69.9841 240.825C71.3049 236.386 72.2284 231.829 73.4377 227.37C74.4301 223.718 75.6189 220.135 76.8529 216.696C78.0177 213.453 79.2265 210.334 81.2206 207.668C82.9346 205.381 85.2251 203.429 88.5831 201.524C85.254 199.572 82.9908 197.583 81.3156 195.271C79.3634 192.579 78.2001 189.439 77.0864 186.18C75.8972 182.72 74.7674 179.119 73.8312 175.452C72.6863 170.983 71.835 166.408 70.5764 161.947C69.5649 158.382 68.2975 154.888 66.6876 151.54C66.2129 150.561 65.7104 149.593 65.1302 148.689C64.6296 147.901 64.0658 147.165 63.4785 146.419C63.0403 145.865 62.5865 145.305 62.3606 144.652C62.2974 144.464 62.2508 144.269 62.2098 144.072C62.1859 143.965 62.2289 143.864 62.3222 143.806C62.4866 143.701 62.6588 143.599 62.84 143.519C63.4659 143.226 64.1842 143.161 64.8869 143.09C65.8312 142.992 66.7554 142.876 67.6659 142.695C68.7244 142.48 69.7636 142.168 70.7947 141.822C74.3211 140.651 77.7165 139.125 80.9771 137.363C85.0524 135.167 88.9287 132.592 92.9311 130.296C96.2201 128.413 99.5936 126.721 102.903 125.16C106.017 123.69 109.076 122.34 112.372 121.865C115.2 121.462 118.196 121.698 121.923 122.731C120.947 118.997 120.75 115.989 121.2 113.171C121.725 109.883 123.122 106.844 124.638 103.75C126.247 100.469 127.991 97.1209 129.926 93.8631C132.279 89.8926 134.911 86.0545 137.17 82.012C138.98 78.7793 140.553 75.4096 141.784 71.9C142.139 70.8756 142.469 69.8357 142.697 68.7851C142.898 67.8751 143.024 66.9565 143.133 66.0123C143.218 65.3111 143.296 64.5933 143.595 63.9736C143.684 63.7949 143.784 63.6251 143.896 63.4563C143.955 63.3613 144.055 63.3208 144.163 63.3481C144.356 63.3929 144.551 63.4432 144.734 63.5115C145.386 63.7457 145.937 64.2089 146.486 64.6531C147.222 65.2546 147.952 65.8261 148.729 66.3394C149.625 66.9346 150.585 67.4515 151.559 67.9372C154.881 69.6007 158.357 70.9236 161.907 71.9833C166.348 73.3096 170.91 74.2308 175.364 75.4423C179.016 76.4346 182.599 77.6234 186.044 78.8551C189.281 80.0221 192.4 81.2308 195.066 83.2249C197.352 84.9333 199.305 87.2293 201.21 90.5872C203.16 87.2525 205.152 84.995 207.461 83.3142C210.158 81.3597 213.294 80.1987 216.552 79.085C220.015 77.9013 223.613 76.7659 227.28 75.8297C231.757 74.688 236.326 73.8389 240.786 72.5748C244.353 71.5688 247.847 70.3014 251.193 68.6859C252.174 68.2168 253.142 67.7143 254.047 67.134C254.832 66.6279 255.57 66.0697 256.316 65.4824C256.876 65.0419 257.431 64.5904 258.083 64.3645C258.267 64.2901 258.464 64.2491 258.661 64.2081C258.768 64.1842 258.869 64.2271 258.927 64.3204C259.034 64.4904 259.137 64.6626 259.217 64.8438C259.509 65.4697 259.574 66.188 259.651 66.8884C259.743 67.835 259.856 68.7536 260.04 69.6697C260.253 70.7226 260.567 71.7673 260.914 72.7985C262.084 76.3247 263.607 79.7146 265.37 82.9751C267.568 87.0559 270.143 90.9321 272.439 94.9344C274.32 98.2178 276.011 101.591 277.573 104.901C279.043 108.014 280.395 111.079 280.868 114.37C281.276 117.195 281.037 120.199 280.007 123.918C283.743 122.947 286.746 122.753 289.564 123.203C292.857 123.726 295.891 125.124 298.985 126.641C302.271 128.248 305.614 129.993 308.875 131.921C312.842 134.281 316.678 136.908 320.723 139.172C323.956 140.982 327.326 142.555 330.833 143.781C331.86 144.142 332.899 144.471 333.95 144.699C334.86 144.9 335.779 145.026 336.723 145.135C337.43 145.218 338.14 145.292 338.767 145.595C338.944 145.678 339.11 145.786 339.277 145.893C339.372 145.952 339.414 146.057 339.385 146.16C339.342 146.358 339.298 146.551 339.229 146.734C338.989 147.388 338.532 147.936 338.082 148.488C337.481 149.224 336.909 149.954 336.396 150.732C335.8 151.627 335.284 152.587 334.798 153.561C333.134 156.883 331.811 160.359 330.752 163.909C329.425 168.35 328.502 172.907 327.298 177.363C326.3 181.018 325.117 184.599 323.877 188.04C322.712 191.283 321.509 194.399 319.51 197.068C317.801 199.353 315.511 201.305 312.153 203.21C315.482 205.162 317.743 207.146 319.42 209.463C321.372 212.155 322.533 215.29 323.649 218.553C324.831 222.01 325.968 225.615 326.905 229.282C328.044 233.753 328.895 238.328 330.157 242.782C331.165 246.354 332.433 249.848 334.048 253.194C334.517 254.175 335.017 255.138 335.6 256.048C336.104 256.827 336.664 257.571 337.257 258.315C337.69 258.871 338.144 259.431 338.37 260.084C338.438 260.27 338.485 260.465 338.526 260.662C338.55 260.769 338.505 260.865 338.414 260.928C338.241 261.03 338.069 261.132 337.89 261.217C337.264 261.51 336.551 261.572 335.843 261.646C334.899 261.744 333.978 261.852 333.064 262.041C332.011 262.254 330.967 262.568 329.933 262.909C326.409 264.085 323.019 265.608 319.756 267.365C315.678 269.569 311.807 272.141 307.797 274.434C304.513 276.316 301.142 278.012 297.833 279.574C294.717 281.038 291.66 282.394 288.361 282.864C285.535 283.271 282.532 283.032 278.813 282.003C279.784 285.739 279.98 288.747 279.53 291.565C279.005 294.853 277.609 297.892 276.098 300.984C274.483 304.267 272.739 307.615 270.809 310.871C268.457 314.841 265.824 318.679 263.56 322.724C261.75 325.957 260.177 329.327 258.951 332.834C258.591 333.861 258.261 334.9 258.033 335.951C257.833 336.861 257.707 337.78 257.597 338.724C257.513 339.425 257.44 340.141 257.136 340.763C257.052 340.939 256.947 341.111 256.839 341.278C256.781 341.372 256.681 341.413 256.572 341.386C256.374 341.343 256.184 341.291 255.996 341.225Z" fill="url(#paint2_radial_585_14)"/>
<path d="M200 306C257.99 306 305 258.99 305 201C305 143.01 257.99 96 200 96C142.01 96 95 143.01 95 201C95 258.99 142.01 306 200 306Z" fill="url(#paint3_radial_585_14)"/>
<path d="M200 147C159.877 147 123.492 166.114 96.6431 197.161C94.4523 199.705 94.4523 203.258 96.6431 205.802C123.492 236.886 159.877 256 200 256C240.123 256 276.508 236.886 303.357 205.839C305.548 203.295 305.548 199.742 303.357 197.198C276.508 166.114 240.123 147 200 147ZM202.878 239.878C176.244 241.337 154.25 222.223 155.925 198.994C157.3 179.842 175.127 164.319 197.122 163.122C223.756 161.663 245.75 180.777 244.075 204.006C242.657 223.12 224.83 238.644 202.878 239.878ZM201.546 222.148C187.199 222.933 175.342 212.647 176.287 200.153C177.017 189.829 186.64 181.488 198.496 180.815C212.844 180.029 224.701 190.316 223.756 202.809C222.983 213.171 213.36 221.512 201.546 222.148Z" fill="url(#paint4_radial_585_14)"/>
<path d="M200 245C224.301 245 244 225.301 244 201C244 176.699 224.301 157 200 157C175.699 157 156 176.699 156 201C156 225.301 175.699 245 200 245Z" fill="#0A0909"/>
<path d="M200 235C219.33 235 235 219.33 235 200C235 180.67 219.33 165 200 165C180.67 165 165 180.67 165 200C165 219.33 180.67 235 200 235Z" fill="url(#paint5_radial_585_14)"/>
<path d="M200 221C211.046 221 220 212.046 220 201C220 189.954 211.046 181 200 181C188.954 181 180 189.954 180 201C180 212.046 188.954 221 200 221Z" fill="black"/>
<path d="M223.35 201.162C223.233 213.835 212.763 224.013 199.964 223.895C187.165 223.777 176.884 213.407 177.001 200.734C177.118 188.06 187.588 177.883 200.387 178.001C213.186 178.119 223.467 188.489 223.35 201.162Z" fill="url(#paint6_radial_585_14)"/>
</g>
<defs>
<radialGradient id="paint0_radial_585_14" cx="0" cy="0" r="1" gradientUnits="userSpaceOnUse" gradientTransform="translate(200 200) rotate(90) scale(200)">
<stop offset="0.755817" stop-color="#0073FA"/>
<stop offset="1" stop-color="#004494"/>
</radialGradient>
<radialGradient id="paint1_radial_585_14" cx="0" cy="0" r="1" gradientUnits="userSpaceOnUse" gradientTransform="translate(200 202) rotate(90) scale(150)">
<stop offset="0.842991" stop-color="#FFBB00"/>
<stop offset="1" stop-color="#DD4D00"/>
</radialGradient>
<radialGradient id="paint2_radial_585_14" cx="0" cy="0" r="1" gradientUnits="userSpaceOnUse" gradientTransform="translate(200.366 202.367) rotate(90) scale(139.027 139.028)">
<stop offset="0.835667" stop-color="#FF4000"/>
<stop offset="1" stop-color="#FF8000"/>
</radialGradient>
<radialGradient id="paint3_radial_585_14" cx="0" cy="0" r="1" gradientUnits="userSpaceOnUse" gradientTransform="translate(200 201) rotate(90) scale(105)">
<stop offset="0.860624" stop-color="#0062FF"/>
<stop offset="1" stop-color="#001C4A"/>
</radialGradient>
<radialGradient id="paint4_radial_585_14" cx="0" cy="0" r="1" gradientUnits="userSpaceOnUse" gradientTransform="translate(200 201.5) rotate(90) scale(54.5 105)">
<stop offset="0.693516" stop-color="#E680FF"/>
<stop offset="1" stop-color="#2C0078"/>
</radialGradient>
<radialGradient id="paint5_radial_585_14" cx="0" cy="0" r="1" gradientUnits="userSpaceOnUse" gradientTransform="translate(200 200) rotate(90) scale(35)">
<stop offset="0.645513" stop-color="#B300FF"/>
<stop offset="1" stop-color="#4400FF"/>
</radialGradient>
<radialGradient id="paint6_radial_585_14" cx="0" cy="0" r="1" gradientUnits="userSpaceOnUse" gradientTransform="translate(200.175 200.948) rotate(90) scale(22.948 23.1755)">
<stop offset="0.327551" stop-color="#290155"/>
<stop offset="1" stop-color="#73009C"/>
</radialGradient>
<clipPath id="clip0_585_14">
<rect width="400" height="400" fill="white"/>
</clipPath>
</defs>
</svg>
